<mxfile host="app.diagrams.net" modified="2024-02-06T09:04:51.954Z" agent="Mozilla/5.0 (Windows NT 10.0; Win64; x64) AppleWebKit/537.36 (KHTML, like Gecko) Chrome/121.0.0.0 Safari/537.36" version="23.1.1" etag="L-tLcdLbmRxa5imm7_N1" type="github">
  <diagram name="Page-1" id="1wj8K8CO4yaN4AC6-IhH">
    <mxGraphModel>
      <root>
        <mxCell id="0" />
        <mxCell id="1" parent="0" />
      </root>
    </mxGraphModel>
  </diagram>
</mxfile>
